<?xml version="1.0" encoding="UTF-8" standalone="no"?>
<svg width="453px" height="417px" viewBox="0 0 453 417" version="1.1" xmlns="http://www.w3.org/2000/svg" xmlns:xlink="http://www.w3.org/1999/xlink">
    <!-- Generator: Sketch 39.1 (31720) - http://www.bohemiancoding.com/sketch -->
    <title>React Brasil 7@2x</title>
    <desc>Created with Sketch.</desc>
    <defs>
        <polygon id="path-1" points="12.2828156 74.121441 84.6753514 120.159684 157.067887 74.121441 84.6753514 28.083198"></polygon>
        <filter x="-50%" y="-50%" width="200%" height="200%" filterUnits="objectBoundingBox" id="filter-2">
            <feMorphology radius="0.5" operator="dilate" in="SourceAlpha" result="shadowSpreadOuter1"></feMorphology>
            <feOffset dx="0" dy="1" in="shadowSpreadOuter1" result="shadowOffsetOuter1"></feOffset>
            <feGaussianBlur stdDeviation="0.5" in="shadowOffsetOuter1" result="shadowBlurOuter1"></feGaussianBlur>
            <feComposite in="shadowBlurOuter1" in2="SourceAlpha" operator="out" result="shadowBlurOuter1"></feComposite>
            <feColorMatrix values="0 0 0 0 0   0 0 0 0 0   0 0 0 0 0  0 0 0 0.198596014 0" type="matrix" in="shadowBlurOuter1"></feColorMatrix>
        </filter>
        <ellipse id="path-3" cx="27.11878" cy="27.0083045" rx="27.11878" ry="27.0083045"></ellipse>
    </defs>
    <g id="Page-1" stroke="none" stroke-width="1" fill="none" fill-rule="evenodd">
        <g id="React-Brasil-7">
            <g id="BG" transform="translate(43.000000, 11.000000)" stroke="#FFFFFF" stroke-width="35" fill="#FFFFFF">
                <ellipse id="H" cx="184.5" cy="198" rx="184.5" ry="75"></ellipse>
                <ellipse id="R" transform="translate(184.500000, 198.000000) rotate(-60.000000) translate(-184.500000, -198.000000) " cx="184.5" cy="198" rx="184.5" ry="75"></ellipse>
                <ellipse id="L" transform="translate(184.500000, 198.000000) rotate(-120.000000) translate(-184.500000, -198.000000) " cx="184.5" cy="198" rx="184.5" ry="75"></ellipse>
            </g>
            <g id="BR-Copy" transform="translate(143.000000, 135.000000)">
                <g id="Yellow">
                    <use fill="black" fill-opacity="1" filter="url(#filter-2)" xlink:href="#path-1"></use>
                    <use stroke="#F0F0EF" stroke-width="1" fill="#FFFFFF" fill-rule="evenodd" xlink:href="#path-1"></use>
                </g>
                <ellipse id="Blue" fill="#61DAFB" cx="84.5737582" cy="74.3720065" rx="27.11878" ry="27.0083045"></ellipse>
                <g id="White" transform="translate(57.454978, 47.363702)">
                    <mask id="mask-4" fill="white">
                        <use xlink:href="#path-3"></use>
                    </mask>
                    <g id="Oval"></g>
                    <path d="M-54.2375599,81.0249134 C-54.2375594,44.7996753 -24.7510805,15.4333178 11.6223343,15.4333178 C47.9957491,15.4333178 77.4822279,44.7996753 77.4822284,81.0249134 L73.608117,81.0249134 C73.608117,46.9305713 45.8561368,19.2916461 11.6223343,19.2916461 C-22.6114683,19.2916461 -50.3634485,46.9305713 -50.3634485,81.0249134 L-54.2375599,81.0249134 Z" id="Shape" stroke="#FFFFFF" stroke-width="5" fill="#FFFFFF" mask="url(#mask-4)"></path>
                </g>
            </g>
            <g id="ATOM" transform="translate(43.000000, 11.000000)" stroke="#61DAFB" stroke-width="15">
                <ellipse id="H" cx="184.5" cy="198" rx="184.5" ry="75"></ellipse>
                <ellipse id="R" transform="translate(184.500000, 198.000000) rotate(-60.000000) translate(-184.500000, -198.000000) " cx="184.5" cy="198" rx="184.5" ry="75"></ellipse>
                <ellipse id="L" transform="translate(184.500000, 198.000000) rotate(-120.000000) translate(-184.500000, -198.000000) " cx="184.5" cy="198" rx="184.5" ry="75"></ellipse>
            </g>
        </g>
    </g>
</svg>